<mxfile host="app.diagrams.net" modified="2022-04-17T14:39:06.798Z" agent="5.0 (Macintosh; Intel Mac OS X 10_15_7) AppleWebKit/537.36 (KHTML, like Gecko) Chrome/100.0.4896.88 Safari/537.36" etag="vU9th5OlZw0kLqmdbW7F" version="17.4.3" type="github">
  <diagram name="Page-1" id="9f46799a-70d6-7492-0946-bef42562c5a5">
    <mxGraphModel dx="1426" dy="801" grid="1" gridSize="10" guides="1" tooltips="1" connect="1" arrows="1" fold="1" page="1" pageScale="1" pageWidth="1100" pageHeight="850" background="none" math="0" shadow="0">
      <root>
        <mxCell id="0" />
        <mxCell id="1" parent="0" />
        <mxCell id="78961159f06e98e8-17" value="Knowledge Base Object" style="swimlane;html=1;fontStyle=1;align=center;verticalAlign=top;childLayout=stackLayout;horizontal=1;startSize=26;horizontalStack=0;resizeParent=1;resizeLast=0;collapsible=1;marginBottom=0;swimlaneFillColor=#ffffff;rounded=0;shadow=0;comic=0;labelBackgroundColor=none;strokeWidth=1;fillColor=none;fontFamily=Verdana;fontSize=12" parent="1" vertex="1">
          <mxGeometry x="770" y="170" width="190" height="160" as="geometry" />
        </mxCell>
        <mxCell id="78961159f06e98e8-21" value="+ source: ENUM" style="text;html=1;strokeColor=none;fillColor=none;align=left;verticalAlign=top;spacingLeft=4;spacingRight=4;whiteSpace=wrap;overflow=hidden;rotatable=0;points=[[0,0.5],[1,0.5]];portConstraint=eastwest;" parent="78961159f06e98e8-17" vertex="1">
          <mxGeometry y="26" width="190" height="26" as="geometry" />
        </mxCell>
        <mxCell id="78961159f06e98e8-23" value="+ reference_id: string" style="text;html=1;strokeColor=none;fillColor=none;align=left;verticalAlign=top;spacingLeft=4;spacingRight=4;whiteSpace=wrap;overflow=hidden;rotatable=0;points=[[0,0.5],[1,0.5]];portConstraint=eastwest;" parent="78961159f06e98e8-17" vertex="1">
          <mxGeometry y="52" width="190" height="26" as="geometry" />
        </mxCell>
        <mxCell id="78961159f06e98e8-25" value="+ title: string" style="text;html=1;strokeColor=none;fillColor=none;align=left;verticalAlign=top;spacingLeft=4;spacingRight=4;whiteSpace=wrap;overflow=hidden;rotatable=0;points=[[0,0.5],[1,0.5]];portConstraint=eastwest;" parent="78961159f06e98e8-17" vertex="1">
          <mxGeometry y="78" width="190" height="26" as="geometry" />
        </mxCell>
        <mxCell id="78961159f06e98e8-26" value="+ context: string" style="text;html=1;strokeColor=none;fillColor=none;align=left;verticalAlign=top;spacingLeft=4;spacingRight=4;whiteSpace=wrap;overflow=hidden;rotatable=0;points=[[0,0.5],[1,0.5]];portConstraint=eastwest;" parent="78961159f06e98e8-17" vertex="1">
          <mxGeometry y="104" width="190" height="26" as="geometry" />
        </mxCell>
        <mxCell id="78961159f06e98e8-24" value="+ link: string" style="text;html=1;strokeColor=none;fillColor=none;align=left;verticalAlign=top;spacingLeft=4;spacingRight=4;whiteSpace=wrap;overflow=hidden;rotatable=0;points=[[0,0.5],[1,0.5]];portConstraint=eastwest;" parent="78961159f06e98e8-17" vertex="1">
          <mxGeometry y="130" width="190" height="26" as="geometry" />
        </mxCell>
        <mxCell id="1ZLmUHPZvTXVFiyiWBps-11" style="edgeStyle=orthogonalEdgeStyle;rounded=0;orthogonalLoop=1;jettySize=auto;html=1;" edge="1" parent="1" source="1ZLmUHPZvTXVFiyiWBps-1" target="78961159f06e98e8-24">
          <mxGeometry relative="1" as="geometry" />
        </mxCell>
        <mxCell id="1ZLmUHPZvTXVFiyiWBps-1" value="Generate Link" style="rounded=1;whiteSpace=wrap;html=1;" vertex="1" parent="1">
          <mxGeometry x="570" y="350" width="120" height="40" as="geometry" />
        </mxCell>
        <mxCell id="1ZLmUHPZvTXVFiyiWBps-2" value="Confluence Object" style="swimlane;html=1;fontStyle=1;align=center;verticalAlign=top;childLayout=stackLayout;horizontal=1;startSize=26;horizontalStack=0;resizeParent=1;resizeLast=0;collapsible=1;marginBottom=0;swimlaneFillColor=#ffffff;rounded=0;shadow=0;comic=0;labelBackgroundColor=none;strokeWidth=1;fillColor=none;fontFamily=Verdana;fontSize=12" vertex="1" parent="1">
          <mxGeometry x="270" y="164" width="190" height="110" as="geometry" />
        </mxCell>
        <mxCell id="1ZLmUHPZvTXVFiyiWBps-3" value="+ id: number" style="text;html=1;strokeColor=none;fillColor=none;align=left;verticalAlign=top;spacingLeft=4;spacingRight=4;whiteSpace=wrap;overflow=hidden;rotatable=0;points=[[0,0.5],[1,0.5]];portConstraint=eastwest;" vertex="1" parent="1ZLmUHPZvTXVFiyiWBps-2">
          <mxGeometry y="26" width="190" height="26" as="geometry" />
        </mxCell>
        <mxCell id="1ZLmUHPZvTXVFiyiWBps-4" value="+ title: string" style="text;html=1;strokeColor=none;fillColor=none;align=left;verticalAlign=top;spacingLeft=4;spacingRight=4;whiteSpace=wrap;overflow=hidden;rotatable=0;points=[[0,0.5],[1,0.5]];portConstraint=eastwest;" vertex="1" parent="1ZLmUHPZvTXVFiyiWBps-2">
          <mxGeometry y="52" width="190" height="26" as="geometry" />
        </mxCell>
        <mxCell id="1ZLmUHPZvTXVFiyiWBps-5" value="+ body.storage.value: string" style="text;html=1;strokeColor=none;fillColor=none;align=left;verticalAlign=top;spacingLeft=4;spacingRight=4;whiteSpace=wrap;overflow=hidden;rotatable=0;points=[[0,0.5],[1,0.5]];portConstraint=eastwest;" vertex="1" parent="1ZLmUHPZvTXVFiyiWBps-2">
          <mxGeometry y="78" width="190" height="26" as="geometry" />
        </mxCell>
        <mxCell id="1ZLmUHPZvTXVFiyiWBps-10" style="edgeStyle=orthogonalEdgeStyle;rounded=0;orthogonalLoop=1;jettySize=auto;html=1;" edge="1" parent="1" source="1ZLmUHPZvTXVFiyiWBps-8" target="78961159f06e98e8-21">
          <mxGeometry relative="1" as="geometry" />
        </mxCell>
        <mxCell id="1ZLmUHPZvTXVFiyiWBps-8" value="Generate Source" style="rounded=1;whiteSpace=wrap;html=1;" vertex="1" parent="1">
          <mxGeometry x="570" y="110" width="110" height="40" as="geometry" />
        </mxCell>
        <mxCell id="1ZLmUHPZvTXVFiyiWBps-12" style="edgeStyle=orthogonalEdgeStyle;rounded=0;orthogonalLoop=1;jettySize=auto;html=1;entryX=0;entryY=0.5;entryDx=0;entryDy=0;" edge="1" parent="1" source="1ZLmUHPZvTXVFiyiWBps-3" target="78961159f06e98e8-23">
          <mxGeometry relative="1" as="geometry">
            <Array as="points">
              <mxPoint x="615" y="200" />
              <mxPoint x="615" y="235" />
            </Array>
          </mxGeometry>
        </mxCell>
        <mxCell id="1ZLmUHPZvTXVFiyiWBps-13" value="Convert Number To String" style="edgeLabel;html=1;align=center;verticalAlign=middle;resizable=0;points=[];" vertex="1" connectable="0" parent="1ZLmUHPZvTXVFiyiWBps-12">
          <mxGeometry x="-0.6696" relative="1" as="geometry">
            <mxPoint x="23" y="-1" as="offset" />
          </mxGeometry>
        </mxCell>
        <mxCell id="1ZLmUHPZvTXVFiyiWBps-14" style="edgeStyle=orthogonalEdgeStyle;rounded=0;orthogonalLoop=1;jettySize=auto;html=1;" edge="1" parent="1" source="1ZLmUHPZvTXVFiyiWBps-4" target="78961159f06e98e8-25">
          <mxGeometry relative="1" as="geometry">
            <Array as="points">
              <mxPoint x="610" y="225" />
              <mxPoint x="610" y="261" />
            </Array>
          </mxGeometry>
        </mxCell>
        <mxCell id="1ZLmUHPZvTXVFiyiWBps-15" style="edgeStyle=orthogonalEdgeStyle;rounded=0;orthogonalLoop=1;jettySize=auto;html=1;entryX=0;entryY=0.5;entryDx=0;entryDy=0;" edge="1" parent="1" source="1ZLmUHPZvTXVFiyiWBps-5" target="78961159f06e98e8-26">
          <mxGeometry relative="1" as="geometry">
            <Array as="points">
              <mxPoint x="600" y="251" />
              <mxPoint x="600" y="287" />
            </Array>
          </mxGeometry>
        </mxCell>
      </root>
    </mxGraphModel>
  </diagram>
</mxfile>
